<svg width="60" height="60" viewBox="0 0 60 60" fill="none" xmlns="http://www.w3.org/2000/svg">
<circle cx="30" cy="30" r="30" fill="#FFF1F0"/>
<path d="M34.5556 39.9999V37.7777C34.5556 36.599 34.0873 35.4685 33.2538 34.635C32.4203 33.8015 31.2899 33.3333 30.1111 33.3333H23.4444C22.2657 33.3333 21.1352 33.8015 20.3017 34.635C19.4683 35.4685 19 36.599 19 37.7777V39.9999" stroke="#CE1307" stroke-width="1.5" stroke-linecap="round" stroke-linejoin="round"/>
<path d="M26.7779 28.8889C29.2325 28.8889 31.2224 26.899 31.2224 24.4444C31.2224 21.9898 29.2325 20 26.7779 20C24.3233 20 22.3335 21.9898 22.3335 24.4444C22.3335 26.899 24.3233 28.8889 26.7779 28.8889Z" stroke="#CE1307" stroke-width="1.5" stroke-linecap="round" stroke-linejoin="round"/>
<path d="M41.2222 39.9998V37.7775C41.2215 36.7928 40.8938 35.8362 40.2904 35.0579C39.6871 34.2796 38.8424 33.7237 37.8889 33.4775" stroke="#CE1307" stroke-width="1.5" stroke-linecap="round" stroke-linejoin="round"/>
<path d="M34.5554 20.1443C35.5114 20.3891 36.3588 20.9451 36.9639 21.7246C37.569 22.5042 37.8975 23.463 37.8975 24.4498C37.8975 25.4367 37.569 26.3955 36.9639 27.1751C36.3588 27.9546 35.5114 28.5106 34.5554 28.7554" stroke="#CE1307" stroke-width="1.5" stroke-linecap="round" stroke-linejoin="round"/>
</svg>
