<svg width="21" height="20" viewBox="0 0 21 20" fill="none" xmlns="http://www.w3.org/2000/svg">
<path d="M20.5291 14.6074C20.6432 14.4819 20.7079 13.942 20.1993 13.9009H3.14669C1.41165 13.9009 0 15.269 0 16.9507C0 18.6321 1.41165 20.0001 3.14669 20.0001H20.1993C20.8007 19.9344 20.6414 19.4138 20.5248 19.2891C19.0569 17.7166 19.0586 16.2293 20.5291 14.6074ZM19.2941 19.149H3.14669C1.89582 19.149 0.878214 18.1629 0.878214 16.9507C0.878214 15.7385 1.89582 14.752 3.14669 14.752H19.3061C18.2894 16.2289 18.2851 17.7025 19.2941 19.149Z" fill="#CE1307"/>
<path d="M0.43578 13.0496H17.4884C19.2234 13.0496 20.6351 11.6815 20.6351 10.0001C20.6351 8.31843 19.2235 6.95031 17.4884 6.95031H7.94869V6.09925H20.1993C20.8007 6.03354 20.6414 5.51293 20.5248 5.38823C19.0569 3.81575 19.0587 2.32844 20.5291 0.706529C20.6432 0.58106 20.7079 0.0410611 20.1993 0H3.14669C1.41165 4.08162e-05 0 1.36816 0 3.04987C0 4.73126 1.41165 6.09929 3.14669 6.09929H3.70762V6.95035H0.43578C-0.0728125 6.99142 -0.00804348 7.53133 0.105997 7.65684C1.57648 9.2788 1.57816 10.7661 0.110293 12.3386C-0.00631688 12.4632 -0.165628 12.9839 0.43578 13.0496ZM3.14669 5.24819C1.89582 5.24819 0.878214 4.26207 0.878214 3.04987C0.878214 1.83771 1.89582 0.851182 3.14669 0.851182H19.3061C18.2894 2.32808 18.2851 3.80163 19.2941 5.24823H7.94869V3.04967C7.94869 2.81448 7.75227 2.62412 7.50958 2.62412H4.14673C3.90399 2.62412 3.70762 2.81448 3.70762 3.04967V5.24819H3.14669ZM7.07047 3.47522V8.79276L6.09915 8.05513C6.01939 7.99484 5.92375 7.96456 5.82816 7.96456C5.73252 7.96456 5.63688 7.99484 5.55712 8.05513L4.58584 8.79276V3.47522H7.07047ZM3.70762 7.80141V9.66667C3.68219 10.037 3.97285 10.3997 4.41772 10.0016L5.82816 8.93072L7.23854 10.0016C7.7006 10.3645 7.98402 10.023 7.94869 9.66667V7.80141H17.4884C18.7393 7.80141 19.7569 8.78798 19.7569 10.0001C19.7569 11.2123 18.7393 12.1985 17.4884 12.1985H1.34103C2.35009 10.7519 2.34575 9.27831 1.32903 7.80137H3.70762V7.80141Z" fill="#CE1307"/>
</svg>
