<svg width="60" height="60" viewBox="0 0 60 60" fill="none" xmlns="http://www.w3.org/2000/svg">
<circle cx="30" cy="30" r="30" fill="#FFF1F0"/>
<path d="M40.5291 34.6074C40.6432 34.4819 40.7079 33.942 40.1993 33.9009H23.1467C21.4117 33.9009 20 35.269 20 36.9507C20 38.6321 21.4117 40.0001 23.1467 40.0001H40.1993C40.8007 39.9344 40.6414 39.4138 40.5248 39.2891C39.0569 37.7166 39.0586 36.2293 40.5291 34.6074ZM39.2941 39.149H23.1467C21.8958 39.149 20.8782 38.1629 20.8782 36.9507C20.8782 35.7385 21.8958 34.752 23.1467 34.752H39.3061C38.2894 36.2289 38.2851 37.7025 39.2941 39.149Z" fill="#CE1307"/>
<path d="M20.4358 33.0496H37.4884C39.2234 33.0496 40.6351 31.6815 40.6351 30.0001C40.6351 28.3184 39.2235 26.9503 37.4884 26.9503H27.9487V26.0993H40.1993C40.8007 26.0335 40.6414 25.5129 40.5248 25.3882C39.0569 23.8157 39.0587 22.3284 40.5291 20.7065C40.6432 20.5811 40.7079 20.0411 40.1993 20H23.1467C21.4117 20 20 21.3682 20 23.0499C20 24.7313 21.4117 26.0993 23.1467 26.0993H23.7076V26.9504H20.4358C19.9272 26.9914 19.992 27.5313 20.106 27.6568C21.5765 29.2788 21.5782 30.7661 20.1103 32.3386C19.9937 32.4632 19.8344 32.9839 20.4358 33.0496ZM23.1467 25.2482C21.8958 25.2482 20.8782 24.2621 20.8782 23.0499C20.8782 21.8377 21.8958 20.8512 23.1467 20.8512H39.3061C38.2894 22.3281 38.2851 23.8016 39.2941 25.2482H27.9487V23.0497C27.9487 22.8145 27.7523 22.6241 27.5096 22.6241H24.1467C23.904 22.6241 23.7076 22.8145 23.7076 23.0497V25.2482H23.1467V25.2482ZM27.0705 23.4752V28.7928L26.0991 28.0551C26.0194 27.9948 25.9238 27.9646 25.8282 27.9646C25.7325 27.9646 25.6369 27.9948 25.5571 28.0551L24.5858 28.7928V23.4752H27.0705ZM23.7076 27.8014V29.6667C23.6822 30.037 23.9728 30.3997 24.4177 30.0016L25.8282 28.9307L27.2385 30.0016C27.7006 30.3645 27.984 30.023 27.9487 29.6667V27.8014H37.4884C38.7393 27.8014 39.7569 28.788 39.7569 30.0001C39.7569 31.2123 38.7393 32.1985 37.4884 32.1985H21.341C22.3501 30.7519 22.3457 29.2783 21.329 27.8014H23.7076V27.8014Z" fill="#CE1307"/>
</svg>
