<svg width="56" height="50" viewBox="0 0 56 50" fill="none" xmlns="http://www.w3.org/2000/svg">
<path d="M2.77774 0C11.1109 0 22.2219 2.77774 22.2219 22.2219L22.2219 44.4438C22.2219 47.9159 20.1219 50.0465 16.6664 49.9992H5.55547C2.0833 49.9992 0 47.9159 0 44.5215L0 27.7774C0 24.3052 2.0833 22.2219 5.55547 22.2219C8.33321 22.2219 8.33321 22.2219 8.33321 19.4441V16.6664C8.33321 13.8887 5.55547 11.1109 2.77774 11.1109C0 11.1109 0 11.0887 0 8.2471L0 2.77774C0 0 0 0 2.77774 0Z" fill="white"/>
<path d="M36.1103 0C44.4435 0 55.5544 2.77774 55.5544 22.2219V44.4438C55.5544 47.9159 53.4517 50.0465 49.9989 49.9992H38.888C35.4158 49.9992 33.3325 47.9159 33.3325 44.5215V27.7774C33.3325 24.3052 35.4158 22.2219 38.888 22.2219H40.9713C40.9713 15.972 41.6657 11.1109 33.3325 11.1109V2.77774C33.3325 0 33.3325 0 36.1103 0Z" fill="white"/>
</svg>
